<?xml version="1.0" encoding="UTF-8" standalone="no"?>
<svg
   xmlns:dc="http://purl.org/dc/elements/1.1/"
   xmlns:cc="http://creativecommons.org/ns#"
   xmlns:rdf="http://www.w3.org/1999/02/22-rdf-syntax-ns#"
   xmlns:svg="http://www.w3.org/2000/svg"
   xmlns="http://www.w3.org/2000/svg"
   viewBox="0 0 1235.116 1235.116"
   height="1235.116"
   width="1235.116"
   xml:space="preserve"
   id="svg2"
   version="1.1"><metadata
     id="metadata8"><rdf:RDF><cc:Work
         rdf:about=""><dc:format>image/svg+xml</dc:format><dc:type
           rdf:resource="http://purl.org/dc/dcmitype/StillImage" /></cc:Work></rdf:RDF></metadata><defs
     id="defs6"><clipPath
       id="clipPath18"
       clipPathUnits="userSpaceOnUse"><path
         id="path16"
         d="M 0,0 H 926.338 V 926.338 H 0 Z" /></clipPath></defs><g
     transform="matrix(1.3333333,0,0,-1.3333333,0,1235.116)"
     id="g10"><g
       id="g12"><g
         clip-path="url(#clipPath18)"
         id="g14"><g
           transform="translate(2.677,463.1678)"
           id="g20"><path
             id="path22"
             style="fill:#42ba92;fill-opacity:1;fill-rule:nonzero;stroke:none"
             d="m 0,0 c 0,254.323 206.169,460.492 460.492,460.492 254.321,0 460.491,-206.169 460.491,-460.492 0,-254.321 -206.17,-460.491 -460.491,-460.491 C 206.169,-460.491 0,-254.321 0,0 m 828.877,16.088 c -0.077,2.008 -0.218,3.997 -0.328,5.996 -0.149,2.675 -0.292,5.349 -0.498,8.008 -0.203,2.669 -0.466,5.321 -0.727,7.975 -0.183,1.841 -0.363,3.685 -0.573,5.518 -0.36,3.18 -0.771,6.343 -1.212,9.498 -0.155,1.1 -0.315,2.198 -0.48,3.297 -0.559,3.745 -1.166,7.472 -1.836,11.18 -0.02,0.111 -0.043,0.221 -0.063,0.333 -8.439,46.426 -25.64,89.758 -49.739,128.359 -70.285,-88.745 -112.188,-198.048 -128.204,-309.825 -1.664,-7.9 -2.541,-20.115 -3.522,-28.167 -1.064,-9.428 -2.287,-18.885 -3.622,-28.388 -1.038,13.645 -1.701,29.16 -2.194,42.972 -0.4,33.623 3.509,67.243 9.682,100.332 2.62,9.828 7.728,32.708 10.72,42.099 2.35,6.817 6.668,20.761 9.427,27.425 62,149.78 141.033,193.671 141.033,193.671 C 685.701,187.864 576.444,129.143 540.605,79.876 494.721,16.8 485.452,-44.303 519.331,-147.1 c 21.313,-64.669 57.857,-126.788 77.186,-157.263 0,0 155.1,55.955 207.599,248.091 -3.535,-21.163 -8.913,-41.823 -16.204,-61.732 l -0.353,-1.012 c -0.432,-1.163 -2.942,-7.56 -2.942,-7.56 -0.562,-1.453 -1.126,-2.904 -1.722,-4.343 -0.623,-1.509 -1.278,-3.005 -1.932,-4.505 l -1.154,-2.647 c -0.686,-1.592 -1.374,-3.18 -2.096,-4.758 -0.785,-1.727 -1.597,-3.403 -2.404,-5.08 l -0.772,-1.602 c -0.793,-1.664 -1.592,-3.328 -2.417,-4.972 -0.877,-1.741 -1.768,-3.428 -2.66,-5.118 l -0.38,-0.727 c -0.995,-1.884 -1.977,-3.753 -2.993,-5.607 -1.055,-1.913 -2.155,-3.822 -3.255,-5.725 -1.055,-1.844 -2.103,-3.641 -3.171,-5.424 -1.146,-1.916 -2.312,-3.795 -3.484,-5.668 -1.101,-1.769 -2.208,-3.508 -3.328,-5.231 -1.205,-1.848 -2.442,-3.701 -3.694,-5.545 -1.166,-1.709 -2.332,-3.399 -3.518,-5.083 -1.277,-1.81 -2.58,-3.629 -3.904,-5.426 l -1.329,-1.858 -0.707,-0.87 c -16.553,-22.087 -35.673,-42.171 -56.829,-59.692 l -1.317,-1.104 c -4.428,-3.632 -9.17,-7.316 -14.11,-10.958 l -2.436,-1.762 c -10.388,-7.532 -21.274,-14.538 -32.37,-20.846 l -1.586,-0.888 c -12.609,-7.07 -25.558,-13.332 -38.685,-18.713 l -0.511,0.887 -1.146,-0.288 c -17.344,26.568 -60.098,95.957 -84.118,168.83 -35.854,108.808 -27.382,176.872 23.608,239.634 46.471,57.2 171.956,112.528 276.82,148.296 l 0.951,0.896 -52.177,-15.3 c -0.004,-0.002 -0.007,-0.003 -0.011,-0.003 -0.224,0.299 -19.579,-5.956 -19.353,-6.245 -72.446,-23.918 -179.603,-65.662 -221.508,-114.551 -65.855,-76.829 -59.27,-162.439 -27.44,-259.025 31.83,-96.586 94.39,-185.488 94.39,-185.488 0,0 0.075,0.018 0.127,0.032 l 1.484,-2.584 c 19.975,7.042 39.124,15.816 57.349,26.038 0.582,0.326 1.162,0.65 1.739,0.978 11.832,6.721 23.249,14.077 34.216,22.024 0.869,0.629 1.744,1.25 2.607,1.886 5.245,3.871 10.393,7.864 15.42,12.002 0.222,0.182 0.46,0.346 0.681,0.529 0.068,0.076 0.139,0.151 0.211,0.224 22.434,18.584 42.608,39.785 60.093,63.125 0.147,0.167 0.297,0.328 0.443,0.495 0.586,0.785 1.136,1.597 1.716,2.387 1.394,1.9 2.77,3.816 4.13,5.744 1.251,1.776 2.486,3.562 3.707,5.361 1.323,1.948 2.629,3.905 3.916,5.879 1.193,1.832 2.363,3.68 3.524,5.534 1.245,1.99 2.483,3.983 3.691,5.998 1.134,1.89 2.24,3.801 3.341,5.714 1.164,2.023 2.327,4.048 3.453,6.095 1.078,1.956 2.118,3.935 3.16,5.912 1.082,2.051 2.166,4.099 3.21,6.173 1.013,2.016 1.984,4.056 2.962,6.094 0.999,2.08 2.008,4.153 2.968,6.254 0.956,2.092 1.86,4.21 2.778,6.323 0.908,2.088 1.833,4.165 2.702,6.275 0.896,2.173 1.732,4.374 2.588,6.569 0.816,2.091 1.658,4.169 2.435,6.279 0.075,0.202 0.16,0.4 0.233,0.601 0.016,0.076 0.035,0.149 0.055,0.223 10.548,28.805 17.557,59.304 20.599,90.965 0.048,0.497 0.101,0.992 0.148,1.488 0.441,4.795 0.786,9.616 1.041,14.463 0.053,0.976 0.131,1.944 0.176,2.922 0.248,5.548 0.404,11.12 0.404,16.73 0,4.838 -0.111,9.649 -0.299,14.441 m -504.161,-28.693 28.311,-1.26 c 11.52,19.724 24.801,38.348 39.553,55.858 l -25.348,5.416 C 350.496,27.767 336.451,7.639 324.716,-12.605 m -45.987,-119.027 c -1.098,-5.277 -2.2,-10.553 -3.108,-15.907 l 31.322,-0.63 c 3.826,29.47 11.16,57.357 21.472,83.629 l -29.023,0.092 c -9.216,-22.892 -15.899,-45.468 -20.663,-67.184 m -9.425,-81.804 c -0.887,-34.36 1.785,-69.963 8.045,-106.587 l 42.492,-19.43 c -10.462,42.814 -16.462,86.672 -16.618,130.404 z m 130.227,294.783 23.77,-6.467 c 15.382,14.909 31.87,28.845 49.234,41.792 l -21.623,6.684 C 431.937,109.895 414.875,95.836 399.531,81.347 m 198.648,117.49 13.477,-5.344 c 20.448,8.127 41.213,15.211 62.056,21.236 l -13.459,4.006 c -21.884,-6.103 -42.516,-12.771 -62.074,-19.898 m -106.64,-49.334 19.848,-6.362 c 18.038,11.224 36.75,21.499 55.918,30.812 l -17.62,5.319 c -20.857,-9.357 -40.194,-19.317 -58.146,-29.769 m 218.642,76.49 c 18.04,5.654 39.331,12.267 64.448,19.994 -26.672,-5.056 -52.334,-11 -75.445,-16.931 z m 46.592,27.952 C 512.697,241.885 257.399,133.623 127.075,-81.351 c -8.135,24.031 -9.44,50.019 -9.71,74.651 -0.132,60.153 14.314,120.711 42.622,173.565 C 129.031,99.964 118.784,22.892 132.46,-49.379 c 67.425,98.262 163.251,175.312 270.719,225.875 83.92,39.823 174.096,65.351 265.874,78.516 17.008,2.373 34.042,4.265 51.151,5.681 -110.124,44.907 -239.869,44.118 -347.5,-8.196 -37.373,-18.3 -72.24,-41.908 -103.693,-69.534 30.306,28.868 64.338,54.021 101.397,74.06 93.612,50.346 205.928,61.257 308.956,36.552 1.533,-0.364 3.039,-0.778 4.564,-1.154 C 621.961,339.857 544.56,368.136 460.492,368.136 257.176,368.136 92.356,203.316 92.356,0 c 0,-47.721 9.467,-97.643 28.125,-141.545 0,0 88.811,183.248 322.547,302.79 163.387,83.564 316.099,92.196 316.099,92.196 z" /></g></g></g></g></svg>