<?xml version="1.0" encoding="UTF-8" standalone="no"?>
<svg
   xmlns:dc="http://purl.org/dc/elements/1.1/"
   xmlns:cc="http://creativecommons.org/ns#"
   xmlns:rdf="http://www.w3.org/1999/02/22-rdf-syntax-ns#"
   xmlns:svg="http://www.w3.org/2000/svg"
   xmlns="http://www.w3.org/2000/svg"
   viewBox="0 0 2268.3999 661.33331"
   height="661.33331"
   width="2268.3999"
   xml:space="preserve"
   id="svg2"
   version="1.1"><metadata
     id="metadata8"><rdf:RDF><cc:Work
         rdf:about=""><dc:format>image/svg+xml</dc:format><dc:type
           rdf:resource="http://purl.org/dc/dcmitype/StillImage" /></cc:Work></rdf:RDF></metadata><defs
     id="defs6"><clipPath
       id="clipPath18"
       clipPathUnits="userSpaceOnUse"><path
         id="path16"
         d="M 0,0 H 1701.3 V 496 H 0 Z" /></clipPath><clipPath
       id="clipPath30"
       clipPathUnits="userSpaceOnUse"><path
         id="path28"
         d="M 0,496 H 1701.3 V 0 H 0 Z" /></clipPath></defs><g
     transform="matrix(1.3333333,0,0,-1.3333333,0,661.33333)"
     id="g10"><g
       id="g12"><g
         clip-path="url(#clipPath18)"
         id="g14"><g
           transform="translate(385.6913,120.1832)"
           id="g20"><path
             id="path22"
             style="fill:#ffffff;fill-opacity:1;fill-rule:nonzero;stroke:none"
             d="m 0,0 5.285,-11.276 c -20.814,-13.468 -46.593,-20.201 -77.341,-20.201 -29.788,0 -54.415,9.996 -73.865,29.996 -19.458,19.997 -29.187,47.066 -29.187,81.216 0,34.825 10.103,62.781 30.308,83.869 20.199,21.087 47.853,31.632 82.949,31.632 11.291,0 23.535,-2.383 36.732,-7.144 0.443,-0.16 0.807,-0.324 1.244,-0.484 -2.344,-10.805 -4.089,-21.828 -5.157,-33.055 -2.143,0.922 -4.473,1.831 -7.004,2.727 -10,3.535 -19.831,5.305 -29.488,5.305 -21.085,0 -37.823,-7.382 -50.199,-22.141 -12.382,-14.761 -18.57,-34.997 -18.57,-60.709 0,-25.579 6.326,-45.067 18.98,-58.463 12.648,-13.401 30.2,-20.101 52.649,-20.101 17.412,0 34.957,6.733 52.648,20.201 L -8.14,17.368 C -5.641,11.46 -2.88,5.695 0,0 M 495.108,127.427 C 495.108,-6.595 386.463,-115.24 252.441,-115.24 118.42,-115.24 9.775,-6.595 9.775,127.427 c 0,134.021 108.645,242.666 242.666,242.666 134.022,0 242.667,-108.645 242.667,-242.666 m -251.87,84.972 c 86.101,44.036 166.575,48.584 166.575,48.584 l -1.24,0.266 C 279.952,254.893 145.416,197.841 76.74,84.556 c -4.287,12.664 -4.975,26.36 -5.117,39.34 -0.07,31.699 7.542,63.611 22.459,91.464 -16.313,-35.256 -21.711,-75.871 -14.505,-113.955 35.531,51.78 86.029,92.384 142.661,119.03 44.224,20.985 91.744,34.438 140.11,41.376 8.963,1.25 17.939,2.248 26.955,2.994 -58.032,23.664 -126.406,23.248 -183.123,-4.32 -19.696,-9.642 -38.069,-22.084 -54.644,-36.642 15.971,15.213 33.904,28.468 53.433,39.028 49.332,26.53 108.519,32.281 162.812,19.261 0.808,-0.192 1.602,-0.409 2.406,-0.608 -32.655,24.999 -73.444,39.9 -117.746,39.9 -107.142,0 -193.998,-86.855 -193.998,-193.997 0,-25.148 4.989,-51.456 14.821,-74.591 0,0 46.801,96.567 169.975,159.563 m 134.986,35.734 5.796,-1.614 c 9.507,2.98 20.725,6.464 33.963,10.536 -14.056,-2.664 -27.58,-5.796 -39.759,-8.922 m -20.515,-5.44 c -11.533,-3.216 -22.405,-6.729 -32.711,-10.485 l 7.101,-2.816 c 10.776,4.283 21.719,8.016 32.702,11.191 z m -58.266,-20.796 c -10.992,-4.93 -21.182,-10.178 -30.642,-15.688 l 10.459,-3.352 c 9.507,5.916 19.367,11.331 29.468,16.238 z M 178.322,-51.457 c -5.514,22.562 -8.676,45.674 -8.758,68.72 L 151.69,14.951 c -0.466,-18.107 0.941,-36.868 4.24,-56.168 z m 4.518,144.873 -15.295,0.048 c -4.856,-12.063 -8.377,-23.96 -10.888,-35.404 -0.579,-2.781 -1.16,-5.561 -1.637,-8.383 l 16.505,-0.333 c 2.016,15.531 5.88,30.227 11.315,44.072 m 33.813,56.14 -13.357,2.853 c -8.82,-10.35 -16.222,-20.957 -22.406,-31.625 l 14.919,-0.664 c 6.072,10.393 13.071,20.208 20.844,29.436 m 42.135,39.353 -11.395,3.522 c -9.999,-7.094 -18.991,-14.502 -27.077,-22.136 l 12.526,-3.408 c 8.106,7.856 16.795,15.2 25.946,22.022 M 433.523,97.772 c -1.862,-11.152 -4.697,-22.039 -8.54,-32.531 l -0.185,-0.533 c -0.228,-0.613 -1.551,-3.984 -1.551,-3.984 -0.296,-0.765 -0.593,-1.531 -0.908,-2.288 -0.328,-0.796 -0.672,-1.584 -1.017,-2.375 l -0.608,-1.394 c -0.363,-0.839 -0.726,-1.676 -1.104,-2.508 -0.415,-0.91 -0.843,-1.794 -1.267,-2.676 l -0.408,-0.844 c -0.417,-0.878 -0.839,-1.754 -1.273,-2.62 -0.463,-0.919 -0.932,-1.808 -1.402,-2.698 l -0.2,-0.384 c -0.525,-0.992 -1.042,-1.977 -1.577,-2.954 -0.556,-1.008 -1.136,-2.014 -1.716,-3.016 -0.556,-0.972 -1.108,-1.92 -1.671,-2.859 -0.604,-1.009 -1.218,-2 -1.836,-2.988 -0.58,-0.932 -1.164,-1.848 -1.754,-2.756 -0.635,-0.973 -1.287,-1.949 -1.947,-2.921 -0.613,-0.902 -1.228,-1.792 -1.853,-2.679 -0.674,-0.955 -1.36,-1.912 -2.058,-2.86 l -0.7,-0.979 -0.373,-0.458 C 390.852,6.827 380.776,-3.756 369.628,-12.989 l -0.694,-0.582 c -2.334,-1.914 -4.833,-3.856 -7.435,-5.774 l -1.284,-0.93 c -5.475,-3.969 -11.212,-7.661 -17.059,-10.985 l -0.836,-0.468 c -6.644,-3.725 -13.468,-7.025 -20.385,-9.861 l -0.27,0.468 -0.604,-0.152 c -9.14,14 -31.669,50.566 -44.328,88.969 -18.894,57.339 -14.429,93.207 12.44,126.28 24.49,30.144 90.618,59.3 145.879,78.148 l 0.5,0.472 -27.496,-8.063 c -10e-4,0 -0.004,0 -0.005,-10e-4 -0.119,0.159 -10.319,-3.139 -10.199,-3.291 C 359.675,228.637 303.205,206.64 281.123,180.876 246.42,140.389 249.889,95.275 266.663,44.377 c 16.773,-50.898 49.741,-97.748 49.741,-97.748 0,0 0.04,0.01 0.067,0.018 l 0.782,-1.362 c 10.526,3.711 20.616,8.334 30.222,13.722 0.305,0.17 0.612,0.341 0.916,0.514 6.235,3.542 12.252,7.419 18.031,11.607 0.458,0.331 0.918,0.659 1.374,0.993 2.764,2.04 5.476,4.144 8.126,6.324 0.117,0.098 0.241,0.183 0.358,0.28 0.036,0.04 0.073,0.079 0.111,0.118 11.823,9.793 22.453,20.966 31.668,33.265 0.077,0.088 0.157,0.173 0.233,0.261 0.309,0.414 0.599,0.842 0.904,1.258 0.736,1.001 1.46,2.01 2.177,3.026 0.659,0.936 1.31,1.878 1.954,2.826 0.696,1.026 1.385,2.058 2.062,3.098 0.63,0.966 1.247,1.939 1.859,2.916 0.656,1.048 1.307,2.099 1.944,3.16 0.599,0.998 1.18,2.004 1.76,3.012 0.615,1.067 1.227,2.134 1.821,3.212 0.567,1.031 1.115,2.074 1.664,3.115 0.571,1.081 1.142,2.16 1.692,3.253 0.534,1.063 1.046,2.138 1.562,3.212 0.525,1.096 1.057,2.188 1.564,3.296 0.504,1.102 0.98,2.219 1.464,3.331 0.477,1.101 0.965,2.196 1.423,3.307 0.473,1.145 0.913,2.306 1.364,3.462 0.43,1.102 0.873,2.198 1.284,3.308 0.038,0.107 0.084,0.211 0.122,0.318 0.008,0.04 0.019,0.078 0.029,0.117 5.558,15.18 9.253,31.251 10.855,47.937 0.025,0.262 0.053,0.522 0.077,0.784 0.234,2.527 0.415,5.067 0.55,7.62 0.028,0.515 0.068,1.026 0.092,1.542 0.13,2.922 0.213,5.86 0.213,8.816 0,2.549 -0.059,5.084 -0.157,7.609 -0.042,1.059 -0.115,2.107 -0.174,3.16 -0.077,1.409 -0.153,2.819 -0.261,4.22 -0.108,1.407 -0.247,2.804 -0.384,4.203 -0.096,0.97 -0.191,1.941 -0.301,2.908 -0.191,1.676 -0.407,3.342 -0.639,5.004 -0.083,0.58 -0.167,1.16 -0.253,1.738 -0.295,1.974 -0.615,3.938 -0.968,5.891 -0.011,0.059 -0.023,0.117 -0.034,0.176 -4.446,24.465 -13.512,47.3 -26.21,67.641 -37.039,-46.765 -59.12,-104.365 -67.56,-163.269 -0.878,-4.163 -1.339,-10.6 -1.856,-14.843 -0.562,-4.969 -1.206,-9.952 -1.909,-14.96 -0.547,7.191 -0.897,15.367 -1.157,22.646 -0.21,17.717 1.85,35.434 5.103,52.872 1.38,5.178 4.072,17.236 5.649,22.185 1.239,3.592 3.514,10.94 4.967,14.452 32.673,78.931 74.321,102.059 74.321,102.059 -63.784,-25.562 -121.36,-56.506 -140.246,-82.468 -24.18,-33.239 -29.064,-65.439 -11.211,-119.611 11.232,-34.079 30.489,-66.813 40.675,-82.873 0,0 81.733,29.488 109.399,130.737 M -381.615,-27.397 h 176.309 v 36.73 h -135.502 v 107.746 h 98.77 v 34.692 h -98.77 v 83.052 h 137.746 v 36.732 H -381.616 Z M 658.839,110.139 745.57,-27.397 H 698.839 L 619.05,100.956 c -9.113,0 -23.535,0.681 -43.264,2.041 V -27.397 h -40.808 v 298.952 c 1.496,0 12.069,0.509 31.73,1.528 19.658,1.022 33.977,1.532 42.957,1.532 71.828,0 107.745,-28.567 107.745,-85.706 0,-18.773 -5.784,-35.678 -17.347,-50.709 -11.568,-15.033 -25.301,-24.388 -41.224,-28.061 m -1.02,37.346 c 11.159,7.887 16.738,21.967 16.738,42.242 0,16.73 -5.99,28.772 -17.962,36.118 -11.972,7.347 -30.881,11.02 -56.725,11.02 -4.084,0 -12.111,-0.685 -24.084,-2.042 v -97.132 c 9.796,-1.363 19.319,-2.042 28.571,-2.042 24.488,0 42.31,3.944 53.462,11.836 m 104.072,11.02 h 30 V -27.397 h 38.77 v 218.55 h -68.77 z m 51.224,115.292 c -6.67,0 -12.316,-2.312 -16.941,-6.936 -4.627,-4.625 -6.936,-10.274 -6.936,-16.938 0,-6.668 2.345,-12.347 7.039,-17.039 4.697,-4.692 10.306,-7.039 16.838,-7.039 6.659,0 12.347,2.347 17.039,7.039 4.693,4.692 7.039,10.371 7.039,17.039 0,6.532 -2.346,12.141 -7.039,16.836 -4.692,4.693 -10.38,7.038 -17.039,7.038 m 217.734,6.94 h 38.77 V -27.192 h -38.77 v 16.119 c -13.468,-13.468 -33.058,-20.203 -58.77,-20.203 -27.346,0 -49.524,9.795 -66.526,29.385 -17.008,19.59 -25.507,45.712 -25.507,78.36 0,32.787 9.795,60.778 29.385,83.972 19.59,23.194 42.919,34.795 69.994,34.795 22.582,0 39.724,-5.308 51.424,-15.917 z m 0,-140.19 c -9.795,14.692 -23.196,22.038 -40.206,22.038 -20.814,0 -37.648,-7.753 -50.5,-23.262 -12.86,-15.511 -19.289,-35.236 -19.289,-59.18 0,-52.648 23.945,-78.972 71.835,-78.972 6.121,0 13.468,1.938 22.038,5.816 8.571,3.878 13.944,7.989 16.122,12.346 z m 278.342,-62.443 h -157.54 c 0,-25.58 7.01,-45.236 21.02,-58.976 12.376,-11.972 28.294,-17.957 47.751,-17.957 22.171,0 40.675,6.458 55.507,19.386 l 16.32,-27.957 c -5.983,-5.987 -15.168,-11.156 -27.544,-15.507 -15.514,-5.714 -32.788,-8.57 -51.835,-8.57 -27.479,0 -50.808,9.314 -69.995,27.954 -21.356,20.54 -32.038,48.158 -32.038,82.851 0,36.049 10.953,64.957 32.86,86.725 19.589,19.455 42.78,29.183 69.584,29.183 31.152,0 55.573,-8.776 73.257,-26.324 17.141,-16.873 25.711,-39.252 25.711,-67.139 0,-8.57 -1.019,-16.462 -3.058,-23.669 m -35.506,28.16 c 0,15.643 -4.898,28.704 -14.692,39.18 -10.755,11.427 -25.375,17.141 -43.879,17.141 -17.275,0 -31.768,-5.578 -43.463,-16.734 -11.157,-10.61 -17.485,-23.808 -18.98,-39.587 z" /></g></g></g><g
       id="g24"><g
         clip-path="url(#clipPath30)"
         id="g26"><g
           transform="translate(628.9298,332.5818)"
           id="g32"><path
             id="path34"
             style="fill:#42ba92;fill-opacity:1;fill-rule:nonzero;stroke:none"
             d="m 0,0 c 86.1,44.036 166.575,48.584 166.575,48.584 l -1.24,0.267 C 36.713,42.495 -97.823,-14.557 -166.499,-127.843 c -4.286,12.664 -4.974,26.36 -5.117,39.34 -0.069,31.699 7.543,63.611 22.46,91.464 -16.313,-35.256 -21.712,-75.87 -14.505,-113.954 35.53,51.78 86.029,92.384 142.661,119.029 44.224,20.985 91.744,34.439 140.109,41.376 8.963,1.251 17.939,2.248 26.955,2.995 C 88.032,76.071 19.659,75.655 -37.059,48.087 -56.755,38.444 -75.128,26.003 -91.703,11.444 c 15.971,15.213 33.904,28.468 53.434,39.028 49.332,26.531 108.518,32.281 162.812,19.261 0.808,-0.192 1.601,-0.409 2.405,-0.608 -32.655,24.999 -73.444,39.9 -117.745,39.9 -107.143,0 -193.999,-86.854 -193.999,-193.997 0,-25.148 4.989,-51.456 14.821,-74.591 0,0 46.802,96.567 169.975,159.563" /></g><g
           transform="translate(819.2145,217.9552)"
           id="g36"><path
             id="path38"
             style="fill:#42ba92;fill-opacity:1;fill-rule:nonzero;stroke:none"
             d="m 0,0 c -1.863,-11.152 -4.697,-22.039 -8.54,-32.531 l -0.185,-0.533 c -0.228,-0.613 -1.551,-3.984 -1.551,-3.984 -0.296,-0.765 -0.593,-1.531 -0.908,-2.288 -0.328,-0.796 -0.672,-1.584 -1.017,-2.375 l -0.608,-1.394 c -0.363,-0.839 -0.726,-1.676 -1.104,-2.508 -0.415,-0.91 -0.843,-1.794 -1.267,-2.676 l -0.408,-0.844 c -0.417,-0.878 -0.839,-1.754 -1.274,-2.62 -0.462,-0.919 -0.931,-1.808 -1.401,-2.698 l -0.2,-0.384 c -0.525,-0.992 -1.043,-1.977 -1.577,-2.954 -0.556,-1.008 -1.136,-2.014 -1.716,-3.016 -0.556,-0.972 -1.108,-1.92 -1.671,-2.859 -0.604,-1.009 -1.219,-2 -1.836,-2.988 -0.58,-0.932 -1.164,-1.848 -1.755,-2.756 -0.634,-0.973 -1.286,-1.949 -1.946,-2.921 -0.614,-0.902 -1.228,-1.792 -1.854,-2.679 -0.673,-0.955 -1.36,-1.912 -2.057,-2.86 l -0.7,-0.979 -0.373,-0.458 c -8.723,-11.64 -18.799,-22.223 -29.947,-31.456 l -0.695,-0.582 c -2.333,-1.914 -4.832,-3.856 -7.434,-5.774 l -1.284,-0.93 c -5.475,-3.969 -11.212,-7.661 -17.059,-10.985 l -0.836,-0.468 c -6.644,-3.725 -13.468,-7.025 -20.385,-9.861 l -0.27,0.468 -0.604,-0.152 c -9.14,14 -31.669,50.566 -44.328,88.969 -18.894,57.339 -14.429,93.207 12.44,126.28 24.49,30.144 90.618,59.3 145.879,78.148 l 0.5,0.472 -27.496,-8.063 c -0.001,0 -0.004,0 -0.005,-0.001 -0.119,0.159 -10.319,-3.139 -10.199,-3.291 -38.177,-12.604 -94.647,-34.601 -116.729,-60.365 -34.703,-40.487 -31.234,-85.601 -14.46,-136.499 16.773,-50.898 49.741,-97.748 49.741,-97.748 0,0 0.04,0.01 0.067,0.018 l 0.782,-1.362 c 10.526,3.711 20.616,8.334 30.222,13.722 0.305,0.17 0.612,0.341 0.916,0.514 6.234,3.542 12.252,7.419 18.03,11.607 0.459,0.331 0.919,0.659 1.375,0.993 2.764,2.04 5.476,4.144 8.125,6.324 0.118,0.098 0.242,0.183 0.359,0.28 0.036,0.04 0.073,0.079 0.111,0.118 11.822,9.793 22.453,20.966 31.668,33.265 0.077,0.088 0.157,0.173 0.233,0.261 0.309,0.414 0.599,0.842 0.904,1.258 0.736,1.001 1.46,2.01 2.177,3.026 0.659,0.936 1.31,1.878 1.954,2.826 0.696,1.026 1.385,2.058 2.062,3.098 0.63,0.966 1.247,1.939 1.859,2.916 0.656,1.048 1.307,2.099 1.944,3.16 0.599,0.998 1.18,2.004 1.76,3.012 0.615,1.067 1.227,2.134 1.821,3.212 0.567,1.031 1.115,2.074 1.664,3.115 0.571,1.081 1.142,2.16 1.692,3.253 0.534,1.063 1.046,2.138 1.562,3.212 0.525,1.096 1.057,2.188 1.564,3.296 0.504,1.102 0.98,2.219 1.464,3.331 0.477,1.101 0.965,2.196 1.422,3.307 0.474,1.145 0.914,2.306 1.364,3.462 0.431,1.102 0.874,2.198 1.284,3.308 0.039,0.107 0.084,0.211 0.123,0.318 0.008,0.04 0.019,0.078 0.029,0.117 5.558,15.18 9.252,31.251 10.855,47.937 0.025,0.262 0.053,0.522 0.077,0.784 0.234,2.527 0.415,5.067 0.55,7.62 0.028,0.515 0.068,1.026 0.092,1.542 0.13,2.922 0.213,5.86 0.213,8.816 0,2.549 -0.059,5.084 -0.157,7.609 -0.042,1.059 -0.115,2.107 -0.174,3.16 -0.077,1.409 -0.153,2.819 -0.261,4.22 -0.108,1.407 -0.247,2.804 -0.384,4.203 -0.096,0.97 -0.191,1.941 -0.302,2.908 -0.19,1.676 -0.406,3.342 -0.638,5.004 -0.083,0.58 -0.167,1.16 -0.254,1.738 -0.294,1.974 -0.614,3.938 -0.968,5.891 -0.01,0.059 -0.022,0.117 -0.033,0.176 -4.447,24.465 -13.512,47.3 -26.211,67.641 -37.038,-46.765 -59.12,-104.365 -67.56,-163.269 -0.877,-4.163 -1.338,-10.6 -1.856,-14.843 -0.561,-4.969 -1.205,-9.952 -1.908,-14.96 -0.548,7.191 -0.897,15.367 -1.157,22.646 -0.211,17.717 1.849,35.434 5.103,52.872 1.38,5.178 4.072,17.236 5.649,22.185 1.239,3.592 3.513,10.94 4.967,14.452 32.673,78.931 74.321,102.059 74.321,102.059 -63.784,-25.562 -121.36,-56.506 -140.247,-82.468 -24.18,-33.239 -29.064,-65.439 -11.21,-119.611 11.232,-34.079 30.489,-66.813 40.674,-82.873 0,0 81.734,29.488 109.4,130.737" /></g></g></g></g></svg>