<?xml version="1.0" encoding="UTF-8" standalone="no"?>
<svg
   xmlns:dc="http://purl.org/dc/elements/1.1/"
   xmlns:cc="http://creativecommons.org/ns#"
   xmlns:rdf="http://www.w3.org/1999/02/22-rdf-syntax-ns#"
   xmlns:svg="http://www.w3.org/2000/svg"
   xmlns="http://www.w3.org/2000/svg"
   viewBox="0 0 1701.3333 496"
   height="496"
   width="1701.3333"
   xml:space="preserve"
   id="svg2"
   version="1.1"><metadata
     id="metadata8"><rdf:RDF><cc:Work
         rdf:about=""><dc:format>image/svg+xml</dc:format><dc:type
           rdf:resource="http://purl.org/dc/dcmitype/StillImage" /></cc:Work></rdf:RDF></metadata><defs
     id="defs6"><clipPath
       id="clipPath18"
       clipPathUnits="userSpaceOnUse"><path
         id="path16"
         d="M 0,372 H 1276 V 0 H 0 Z" /></clipPath></defs><g
     transform="matrix(1.3333333,0,0,-1.3333333,0,496)"
     id="g10"><g
       id="g12"><g
         clip-path="url(#clipPath18)"
         id="g14"><g
           transform="translate(1244.532,169.8354)"
           id="g20"><path
             id="path22"
             style="fill:#d7ead6;fill-opacity:1;fill-rule:nonzero;stroke:none"
             d="m 0,0 c 0,11.732 -3.673,21.528 -11.019,29.385 -8.066,8.57 -19.031,12.856 -32.909,12.856 -12.956,0 -23.826,-4.184 -32.597,-12.551 C -84.893,21.733 -89.639,11.834 -90.76,0 Z M 26.63,-21.12 H -91.525 c 0,-19.185 5.257,-33.927 15.765,-44.232 9.282,-8.979 21.22,-13.468 35.813,-13.468 16.628,0 30.506,4.844 41.63,14.54 l 12.24,-20.968 c -4.487,-4.49 -11.376,-8.367 -20.658,-11.63 -11.635,-4.286 -24.591,-6.428 -38.876,-6.428 -20.609,0 -38.106,6.986 -52.496,20.966 -16.017,15.405 -24.029,36.118 -24.029,62.138 0,27.037 8.215,48.718 24.645,65.044 14.692,14.591 32.085,21.887 52.188,21.887 23.364,0 41.68,-6.582 54.943,-19.743 12.856,-12.655 19.283,-29.439 19.283,-50.354 0,-6.428 -0.764,-12.347 -2.293,-17.752 m -208.757,46.832 c -7.346,11.019 -17.397,16.529 -30.154,16.529 -15.611,0 -28.236,-5.815 -37.875,-17.447 -9.645,-11.633 -14.467,-26.427 -14.467,-44.385 0,-39.486 17.959,-59.229 53.876,-59.229 4.591,0 10.101,1.454 16.529,4.362 6.428,2.909 10.458,5.992 12.091,9.26 z m 0,105.143 h 29.078 v -230.947 h -29.078 v 12.089 c -10.101,-10.101 -24.793,-15.152 -44.077,-15.152 -20.51,0 -37.143,7.346 -49.895,22.039 -12.756,14.692 -19.13,34.284 -19.13,58.77 0,24.59 7.346,45.583 22.039,62.979 14.692,17.395 32.189,26.096 52.495,26.096 16.937,0 29.793,-3.981 38.568,-11.938 z m -163.3,-5.205 c -5.003,0 -9.237,-1.734 -12.706,-5.202 -3.47,-3.469 -5.202,-7.706 -5.202,-12.704 0,-5.001 1.759,-9.26 5.279,-12.779 3.523,-3.519 7.73,-5.279 12.629,-5.279 4.994,0 9.26,1.76 12.779,5.279 3.52,3.519 5.279,7.778 5.279,12.779 0,4.899 -1.759,9.106 -5.279,12.627 -3.519,3.52 -7.785,5.279 -12.779,5.279 m -38.418,-86.469 h 22.5 v -139.427 h 29.077 V 63.667 h -51.577 z m -78.054,-8.265 c 8.369,5.915 12.553,16.475 12.553,31.681 0,12.548 -4.492,21.579 -13.471,27.089 -8.979,5.51 -23.161,8.265 -42.544,8.265 -3.063,0 -9.083,-0.514 -18.063,-1.532 V 23.57 c 7.347,-1.022 14.489,-1.531 21.428,-1.531 18.366,0 31.733,2.958 40.097,8.877 m 0.765,-28.01 65.048,-103.152 h -35.048 l -59.842,96.265 c -6.835,0 -17.651,0.511 -32.448,1.531 v -97.796 h -30.606 v 224.214 c 1.122,0 9.052,0.382 23.798,1.146 14.743,0.767 25.482,1.149 32.217,1.149 53.871,0 80.809,-21.425 80.809,-64.279 0,-14.08 -4.338,-26.759 -13.01,-38.032 -8.676,-11.275 -18.976,-18.291 -30.918,-21.046 m -780.341,-103.152 h 132.232 v 27.548 h -101.626 V 8.111 h 74.077 V 34.13 h -74.077 v 62.289 h 103.309 v 27.549 h -133.915 z m 611.354,93.877 c -1.397,-8.364 -3.523,-16.529 -6.405,-24.398 l -0.139,-0.4 c -0.171,-0.46 -1.163,-2.988 -1.163,-2.988 -0.222,-0.574 -0.445,-1.148 -0.681,-1.716 -0.246,-0.597 -0.504,-1.188 -0.763,-1.781 l -0.456,-1.046 c -0.272,-0.629 -0.544,-1.257 -0.828,-1.881 -0.311,-0.682 -0.632,-1.345 -0.95,-2.007 l -0.306,-0.633 c -0.313,-0.658 -0.629,-1.315 -0.955,-1.965 -0.347,-0.689 -0.699,-1.356 -1.051,-2.023 l -0.15,-0.288 c -0.394,-0.744 -0.782,-1.483 -1.183,-2.216 -0.417,-0.756 -0.852,-1.51 -1.287,-2.262 -0.417,-0.729 -0.831,-1.44 -1.253,-2.144 -0.453,-0.757 -0.914,-1.5 -1.377,-2.241 -0.435,-0.699 -0.873,-1.386 -1.316,-2.067 -0.476,-0.73 -0.965,-1.462 -1.46,-2.191 -0.46,-0.676 -0.921,-1.344 -1.39,-2.009 -0.505,-0.716 -1.02,-1.434 -1.543,-2.145 l -0.525,-0.734 -0.28,-0.344 c -6.542,-8.73 -14.099,-16.667 -22.46,-23.592 l -0.521,-0.436 c -1.75,-1.436 -3.624,-2.892 -5.576,-4.331 l -0.963,-0.697 c -4.106,-2.977 -8.409,-5.746 -12.794,-8.239 l -0.627,-0.351 c -4.983,-2.794 -10.101,-5.269 -15.289,-7.396 l -0.202,0.351 -0.453,-0.114 c -6.855,10.5 -23.752,37.925 -33.246,66.727 -14.171,43.004 -10.822,69.905 9.33,94.71 18.367,22.608 67.963,44.475 109.409,58.611 l 0.375,0.354 -20.622,-6.047 c -10e-4,0 -0.003,0 -0.004,-0.001 -0.089,0.119 -7.739,-2.354 -7.649,-2.468 -28.633,-9.453 -70.985,-25.951 -87.547,-45.274 -26.027,-30.365 -23.425,-64.201 -10.845,-102.374 12.58,-38.174 37.306,-73.311 37.306,-73.311 0,0 0.03,0.007 0.05,0.013 l 0.587,-1.021 c 7.894,2.783 15.462,6.25 22.666,10.291 0.229,0.128 0.459,0.256 0.687,0.386 4.676,2.656 9.189,5.564 13.523,8.705 0.344,0.248 0.689,0.494 1.031,0.745 2.073,1.53 4.107,3.108 6.094,4.743 0.088,0.073 0.181,0.137 0.269,0.21 0.027,0.03 0.055,0.059 0.083,0.088 8.867,7.345 16.84,15.725 23.751,24.949 0.058,0.066 0.118,0.13 0.175,0.196 0.232,0.31 0.449,0.631 0.678,0.943 0.552,0.751 1.095,1.508 1.633,2.27 0.494,0.702 0.982,1.408 1.465,2.119 0.522,0.77 1.039,1.544 1.547,2.324 0.472,0.724 0.935,1.454 1.394,2.187 0.492,0.786 0.98,1.574 1.458,2.37 0.449,0.748 0.885,1.503 1.32,2.259 0.461,0.8 0.92,1.6 1.366,2.409 0.425,0.773 0.836,1.555 1.248,2.336 0.428,0.811 0.856,1.62 1.269,2.44 0.4,0.797 0.784,1.603 1.171,2.409 0.394,0.822 0.793,1.641 1.173,2.472 0.378,0.826 0.735,1.664 1.098,2.498 0.358,0.826 0.724,1.647 1.067,2.48 0.355,0.859 0.685,1.73 1.023,2.597 0.323,0.826 0.655,1.648 0.963,2.481 0.029,0.08 0.063,0.158 0.092,0.238 0.006,0.03 0.014,0.059 0.022,0.088 4.168,11.385 6.939,23.438 8.141,35.953 0.019,0.196 0.04,0.391 0.058,0.588 0.175,1.895 0.311,3.8 0.412,5.715 0.021,0.386 0.051,0.769 0.069,1.156 0.098,2.192 0.16,4.395 0.16,6.612 0,1.912 -0.044,3.813 -0.118,5.707 -0.031,0.794 -0.086,1.58 -0.13,2.37 -0.058,1.057 -0.115,2.114 -0.196,3.165 -0.081,1.055 -0.185,2.103 -0.288,3.152 -0.072,0.728 -0.143,1.456 -0.226,2.181 -0.143,1.257 -0.305,2.507 -0.479,3.753 -0.062,0.435 -0.125,0.87 -0.19,1.304 -0.221,1.48 -0.461,2.953 -0.726,4.418 -0.008,0.044 -0.017,0.088 -0.025,0.132 -3.335,18.349 -10.134,35.475 -19.658,50.731 -27.779,-35.074 -44.34,-78.274 -50.67,-122.452 -0.658,-3.122 -1.004,-7.95 -1.392,-11.132 -0.421,-3.727 -0.904,-7.464 -1.431,-11.22 -0.411,5.393 -0.673,11.525 -0.868,16.984 -0.158,13.288 1.387,26.576 3.827,39.654 1.035,3.884 3.054,12.927 4.237,16.639 0.929,2.694 2.635,8.205 3.725,10.839 24.505,59.198 55.741,76.544 55.741,76.544 -47.838,-19.171 -91.02,-42.379 -105.185,-61.851 -18.135,-24.929 -21.798,-49.079 -8.408,-89.708 8.424,-25.559 22.867,-50.11 30.506,-62.155 0,0 61.3,22.116 82.05,98.053 m -131.051,68.353 -8.546,2.641 c -7.499,-5.32 -14.243,-10.876 -20.308,-16.602 l 9.395,-2.556 c 6.079,5.892 12.596,11.4 19.459,16.517 m -31.601,-29.515 -10.018,2.14 c -6.615,-7.763 -12.166,-15.718 -16.804,-23.719 l 11.189,-0.498 c 4.554,7.795 9.803,15.156 15.633,22.077 m -25.36,-42.105 -11.471,0.036 c -3.642,-9.047 -6.283,-17.97 -8.166,-26.553 -0.434,-2.086 -0.87,-4.171 -1.228,-6.287 l 12.379,-0.25 c 1.512,11.648 4.41,22.67 8.486,33.054 m -3.388,-108.655 c -4.136,16.922 -6.507,34.256 -6.569,51.54 l -13.405,-1.734 c -0.35,-13.58 0.705,-27.651 3.18,-42.126 z m 90.841,205.016 c -8.244,-3.698 -15.886,-7.634 -22.981,-11.766 l 7.844,-2.514 c 7.13,4.437 14.525,8.498 22.101,12.178 z m 43.7,15.597 c -8.65,-2.412 -16.804,-5.047 -24.534,-7.864 l 5.326,-2.112 c 8.082,3.212 16.289,6.012 24.527,8.393 z m 15.386,4.08 4.347,-1.211 c 7.13,2.235 15.544,4.848 25.472,7.902 -10.542,-1.998 -20.685,-4.347 -29.819,-6.691 m -101.24,-26.801 c 64.575,33.027 124.931,36.438 124.931,36.438 l -0.93,0.2 c -96.466,-4.767 -197.368,-47.556 -248.875,-132.52 -3.215,9.498 -3.731,19.77 -3.838,29.505 -0.052,23.774 5.657,47.708 16.845,68.598 -12.235,-26.442 -16.284,-56.903 -10.879,-85.466 26.648,38.835 64.522,69.288 106.996,89.272 33.168,15.739 68.808,25.829 105.082,31.032 6.722,0.938 13.454,1.686 20.216,2.246 -43.524,17.748 -94.804,17.436 -137.342,-3.24 -14.772,-7.232 -28.552,-16.563 -40.983,-27.482 11.978,11.41 25.428,21.351 40.075,29.271 36.999,19.898 81.389,24.211 122.109,14.446 0.606,-0.144 1.201,-0.307 1.804,-0.456 -24.491,18.749 -55.083,29.925 -88.309,29.925 -80.357,0 -145.499,-65.141 -145.499,-145.498 0,-18.861 3.742,-38.592 11.116,-55.943 0,0 35.101,72.425 127.481,119.672 m 188.902,-63.729 c 0,-100.516 -81.484,-182 -182,-182 -100.516,0 -182,81.484 -182,182 0,100.516 81.484,182 182,182 100.516,0 182,-81.484 182,-182 m -371.331,-95.57 3.964,-8.457 c -15.611,-10.101 -34.945,-15.151 -58.006,-15.151 -22.341,0 -40.811,7.497 -55.399,22.497 -14.593,14.998 -21.89,35.3 -21.89,60.912 0,26.119 7.577,47.086 22.731,62.902 15.149,15.815 35.89,23.724 62.212,23.724 8.468,0 17.651,-1.787 27.549,-5.358 0.332,-0.12 0.605,-0.243 0.933,-0.363 -1.758,-8.104 -3.067,-16.371 -3.868,-24.791 -1.607,0.691 -3.355,1.373 -5.253,2.045 -7.5,2.651 -14.873,3.979 -22.116,3.979 -15.814,0 -28.367,-5.537 -37.649,-16.606 -9.287,-11.071 -13.928,-26.248 -13.928,-45.532 0,-19.184 4.745,-33.8 14.235,-43.847 9.486,-10.051 22.65,-15.076 39.487,-15.076 13.059,0 26.218,5.05 39.486,15.151 l 1.407,-3.003 c 1.874,-4.431 3.945,-8.755 6.105,-13.026" /></g></g></g></g></svg>