<?xml version="1.0" encoding="UTF-8"?>
<svg id="svg2" xmlns="http://www.w3.org/2000/svg" xmlns:xlink="http://www.w3.org/1999/xlink" xmlns:svg="http://www.w3.org/2000/svg" xmlns:rdf="http://www.w3.org/1999/02/22-rdf-syntax-ns#" xmlns:dc="http://purl.org/dc/elements/1.1/" xmlns:cc="http://creativecommons.org/ns#" version="1.1" viewBox="0 0 1701.3 496">
  <defs>
    <style>
      .cls-1 {
        clip-path: url(#clippath);
      }

      .cls-2 {
        fill: none;
      }

      .cls-2, .cls-3 {
        stroke-width: 0px;
      }

      .cls-3 {
        fill: #fff;
      }
    </style>
    <clipPath id="clippath">
      <rect class="cls-2" y="0" width="1701.3" height="496"/>
    </clipPath>
  </defs>
  <g id="g10">
    <g id="g12">
      <g class="cls-1">
        <g id="g14">
          <g id="g20">
            <path id="path22" class="cls-3" d="M1659.4,269.6c0-15.6-4.9-28.7-14.7-39.2-10.8-11.4-25.4-17.1-43.9-17.1s-31.8,5.6-43.5,16.7c-11.2,10.6-17.5,23.8-19,39.6h121ZM1694.9,297.7h-157.5c0,25.6,7,45.2,21,59,12.4,12,28.3,18,47.8,18s40.7-6.5,55.5-19.4l16.3,28c-6,6-15.2,11.2-27.5,15.5-15.5,5.7-32.8,8.6-51.8,8.6-27.5,0-50.8-9.3-70-28-21.4-20.5-32-48.2-32-82.9s11-65,32.9-86.7c19.6-19.5,42.8-29.2,69.6-29.2s55.6,8.8,73.3,26.3c17.1,16.9,25.7,39.3,25.7,67.1s-1,16.5-3.1,23.7M1416.5,235.3c-9.8-14.7-23.2-22-40.2-22s-37.6,7.8-50.5,23.3c-12.9,15.5-19.3,35.2-19.3,59.2,0,52.6,23.9,79,71.8,79s13.5-1.9,22-5.8c8.6-3.9,13.9-8,16.1-12.3v-121.2ZM1416.5,95.1h38.8v307.9h-38.8v-16.1c-13.5,13.5-33.1,20.2-58.8,20.2s-49.5-9.8-66.5-29.4c-17-19.6-25.5-45.7-25.5-78.4s9.8-60.8,29.4-84c19.6-23.2,42.9-34.8,70-34.8s39.7,5.3,51.4,15.9v-101.4ZM1198.8,102c-6.7,0-12.3,2.3-16.9,6.9-4.6,4.6-6.9,10.3-6.9,16.9s2.3,12.3,7,17c4.7,4.7,10.3,7,16.8,7s12.3-2.3,17-7c4.7-4.7,7-10.4,7-17s-2.3-12.1-7-16.8c-4.7-4.7-10.4-7-17-7M1147.6,217.3h30v185.9h38.8v-218.6h-68.8v32.6ZM1043.5,228.3c11.2-7.9,16.7-22,16.7-42.2s-6-28.8-18-36.1-30.9-11-56.7-11-12.1.7-24.1,2v97.1c9.8,1.4,19.3,2,28.6,2,24.5,0,42.3-3.9,53.5-11.8M1044.5,265.7l86.7,137.5h-46.7l-79.8-128.4c-9.1,0-23.5-.7-43.3-2v130.4h-40.8V104.3c1.5,0,12.1-.5,31.7-1.5,19.7-1,34-1.5,43-1.5,71.8,0,107.7,28.6,107.7,85.7s-5.8,35.7-17.3,50.7c-11.6,15-25.3,24.4-41.2,28.1M4.1,403.2h176.3v-36.7H44.9v-107.7h98.8v-34.7H44.9v-83.1h137.7v-36.7H4.1v299ZM819.2,278c-1.9,11.2-4.7,22-8.5,32.5l-.2.5c-.2.6-1.6,4-1.6,4-.3.8-.6,1.5-.9,2.3-.3.8-.7,1.6-1,2.4l-.6,1.4c-.4.8-.7,1.7-1.1,2.5-.4.9-.8,1.8-1.3,2.7l-.4.8c-.4.9-.8,1.8-1.3,2.6-.5.9-.9,1.8-1.4,2.7l-.2.4c-.5,1-1,2-1.6,3-.6,1-1.1,2-1.7,3-.6,1-1.1,1.9-1.7,2.9-.6,1-1.2,2-1.8,3-.6.9-1.2,1.8-1.8,2.8-.6,1-1.3,1.9-1.9,2.9-.6.9-1.2,1.8-1.9,2.7-.7,1-1.4,1.9-2.1,2.9l-.7,1-.4.5c-8.7,11.6-18.8,22.2-29.9,31.5l-.7.6c-2.3,1.9-4.8,3.9-7.4,5.8l-1.3.9c-5.5,4-11.2,7.7-17.1,11l-.8.5c-6.6,3.7-13.5,7-20.4,9.9l-.3-.5-.6.2c-9.1-14-31.7-50.6-44.3-89-18.9-57.3-14.4-93.2,12.4-126.3,24.5-30.1,90.6-59.3,145.9-78.1l.5-.5-27.5,8.1s0,0,0,0c-.1-.2-10.3,3.1-10.2,3.3-38.2,12.6-94.6,34.6-116.7,60.4-34.7,40.5-31.2,85.6-14.5,136.5,16.8,50.9,49.7,97.7,49.7,97.7,0,0,0,0,0,0l.8,1.4c10.5-3.7,20.6-8.3,30.2-13.7.3-.2.6-.3.9-.5,6.2-3.5,12.3-7.4,18-11.6.5-.3.9-.7,1.4-1,2.8-2,5.5-4.1,8.1-6.3.1,0,.2-.2.4-.3,0,0,0,0,.1-.1,11.8-9.8,22.5-21,31.7-33.3,0,0,.2-.2.2-.3.3-.4.6-.8.9-1.3.7-1,1.5-2,2.2-3,.7-.9,1.3-1.9,2-2.8.7-1,1.4-2.1,2.1-3.1.6-1,1.2-1.9,1.9-2.9.7-1,1.3-2.1,1.9-3.2.6-1,1.2-2,1.8-3,.6-1.1,1.2-2.1,1.8-3.2.6-1,1.1-2.1,1.7-3.1.6-1.1,1.1-2.2,1.7-3.3.5-1.1,1-2.1,1.6-3.2.5-1.1,1.1-2.2,1.6-3.3.5-1.1,1-2.2,1.5-3.3.5-1.1,1-2.2,1.4-3.3.5-1.1.9-2.3,1.4-3.5.4-1.1.9-2.2,1.3-3.3,0-.1,0-.2.1-.3,0,0,0,0,0-.1,5.6-15.2,9.3-31.3,10.9-47.9,0-.3,0-.5,0-.8.2-2.5.4-5.1.5-7.6,0-.5,0-1,0-1.5.1-2.9.2-5.9.2-8.8s0-5.1-.2-7.6c0-1.1-.1-2.1-.2-3.2,0-1.4-.2-2.8-.3-4.2-.1-1.4-.2-2.8-.4-4.2,0-1-.2-1.9-.3-2.9-.2-1.7-.4-3.3-.6-5,0-.6-.2-1.2-.3-1.7-.3-2-.6-3.9-1-5.9,0,0,0-.1,0-.2-4.4-24.5-13.5-47.3-26.2-67.6-37,46.8-59.1,104.4-67.6,163.3-.9,4.2-1.3,10.6-1.9,14.8-.6,5-1.2,10-1.9,15-.5-7.2-.9-15.4-1.2-22.6-.2-17.7,1.8-35.4,5.1-52.9,1.4-5.2,4.1-17.2,5.6-22.2,1.2-3.6,3.5-10.9,5-14.5,32.7-78.9,74.3-102.1,74.3-102.1-63.8,25.6-121.4,56.5-140.2,82.5-24.2,33.2-29.1,65.4-11.2,119.6,11.2,34.1,30.5,66.8,40.7,82.9,0,0,81.7-29.5,109.4-130.7M644.5,186.9l-11.4-3.5c-10,7.1-19,14.5-27.1,22.1l12.5,3.4c8.1-7.9,16.8-15.2,25.9-22M602.3,226.3l-13.4-2.9c-8.8,10.4-16.2,21-22.4,31.6l14.9.7c6.1-10.4,13.1-20.2,20.8-29.4M568.5,282.4h-15.3c-4.9,12-8.4,23.9-10.9,35.4-.6,2.8-1.2,5.6-1.6,8.4l16.5.3c2-15.5,5.9-30.2,11.3-44.1M564,427.3c-5.5-22.6-8.7-45.7-8.8-68.7l-17.9,2.3c-.5,18.1.9,36.9,4.2,56.2l22.4,10.2ZM685.1,153.9c-11,4.9-21.2,10.2-30.6,15.7l10.5,3.4c9.5-5.9,19.4-11.3,29.5-16.2l-9.3-2.8ZM743.4,133.1c-11.5,3.2-22.4,6.7-32.7,10.5l7.1,2.8c10.8-4.3,21.7-8,32.7-11.2l-7.1-2.1ZM763.9,127.7l5.8,1.6c9.5-3,20.7-6.5,34-10.5-14.1,2.7-27.6,5.8-39.8,8.9M628.9,163.4c86.1-44,166.6-48.6,166.6-48.6l-1.2-.3c-128.6,6.4-263.2,63.4-331.8,176.7-4.3-12.7-5-26.4-5.1-39.3,0-31.7,7.5-63.6,22.5-91.5-16.3,35.3-21.7,75.9-14.5,114,35.5-51.8,86-92.4,142.7-119,44.2-21,91.7-34.4,140.1-41.4,9-1.3,17.9-2.2,27-3-58-23.7-126.4-23.2-183.1,4.3-19.7,9.6-38.1,22.1-54.6,36.6,16-15.2,33.9-28.5,53.4-39,49.3-26.5,108.5-32.3,162.8-19.3.8.2,1.6.4,2.4.6-32.7-25-73.4-39.9-117.7-39.9-107.1,0-194,86.9-194,194s5,51.5,14.8,74.6c0,0,46.8-96.6,170-159.6M880.8,248.4c0,134-108.6,242.7-242.7,242.7s-242.7-108.6-242.7-242.7S504.1,5.7,638.1,5.7s242.7,108.6,242.7,242.7M385.7,375.8l5.3,11.3c-20.8,13.5-46.6,20.2-77.3,20.2s-54.4-10-73.9-30c-19.5-20-29.2-47.1-29.2-81.2s10.1-62.8,30.3-83.9c20.2-21.1,47.9-31.6,82.9-31.6s23.5,2.4,36.7,7.1c.4.2.8.3,1.2.5-2.3,10.8-4.1,21.8-5.2,33.1-2.1-.9-4.5-1.8-7-2.7-10-3.5-19.8-5.3-29.5-5.3-21.1,0-37.8,7.4-50.2,22.1-12.4,14.8-18.6,35-18.6,60.7s6.3,45.1,19,58.5c12.6,13.4,30.2,20.1,52.6,20.1s35-6.7,52.6-20.2l1.9,4c2.5,5.9,5.3,11.7,8.1,17.4"/>
          </g>
        </g>
      </g>
    </g>
  </g>
</svg>