<?xml version="1.0" encoding="UTF-8"?>
<svg id="svg2" xmlns="http://www.w3.org/2000/svg" xmlns:xlink="http://www.w3.org/1999/xlink" xmlns:svg="http://www.w3.org/2000/svg" xmlns:rdf="http://www.w3.org/1999/02/22-rdf-syntax-ns#" xmlns:dc="http://purl.org/dc/elements/1.1/" xmlns:cc="http://creativecommons.org/ns#" version="1.1" viewBox="0 0 2268.4 661.3">
  <defs>
    <style>
      .cls-1 {
        clip-path: url(#clippath);
      }

      .cls-2 {
        fill: none;
      }

      .cls-2, .cls-3, .cls-4 {
        stroke-width: 0px;
      }

      .cls-3 {
        fill: #42ba92;
      }

      .cls-4 {
        fill: #fff;
      }
    </style>
    <clipPath id="clippath">
      <rect class="cls-2" y="0" width="2268.4" height="661.3"/>
    </clipPath>
  </defs>
  <g id="Calque_2" data-name="Calque 2">
    <circle class="cls-3" cx="860.4" cy="315.3" r="293.4"/>
  </g>
  <g id="g10">
    <g id="g12">
      <g class="cls-1">
        <g id="g14">
          <g id="g20">
            <path id="path22" class="cls-4" d="M514.3,501.1l7,15c-27.8,18-62.1,26.9-103.1,26.9s-72.6-13.3-98.5-40c-25.9-26.7-38.9-62.8-38.9-108.3s13.5-83.7,40.4-111.8c26.9-28.1,63.8-42.2,110.6-42.2s31.4,3.2,49,9.5c.6.2,1.1.4,1.7.6-3.1,14.4-5.5,29.1-6.9,44.1-2.9-1.2-6-2.4-9.3-3.6-13.3-4.7-26.4-7.1-39.3-7.1-28.1,0-50.4,9.8-66.9,29.5-16.5,19.7-24.8,46.7-24.8,80.9s8.4,60.1,25.3,78c16.9,17.9,40.3,26.8,70.2,26.8s46.6-9,70.2-26.9l2.5,5.3c3.3,7.9,7,15.6,10.9,23.2M1174.4,331.2c0,178.7-144.9,323.6-323.6,323.6s-323.6-144.9-323.6-323.6S672.1,7.6,850.8,7.6s323.6,144.9,323.6,323.6M838.6,217.9c114.8-58.7,222.1-64.8,222.1-64.8l-1.7-.4c-171.5,8.5-350.9,84.5-442.4,235.6-5.7-16.9-6.6-35.1-6.8-52.5,0-42.3,10.1-84.8,29.9-122-21.8,47-28.9,101.2-19.3,151.9,47.4-69,114.7-123.2,190.2-158.7,59-28,122.3-45.9,186.8-55.2,12-1.7,23.9-3,35.9-4-77.4-31.6-168.5-31-244.2,5.8-26.3,12.9-50.8,29.4-72.9,48.9,21.3-20.3,45.2-38,71.2-52,65.8-35.4,144.7-43,217.1-25.7,1.1.3,2.1.5,3.2.8-43.5-33.3-97.9-53.2-157-53.2-142.9,0-258.7,115.8-258.7,258.7s6.7,68.6,19.8,99.5c0,0,62.4-128.8,226.6-212.8M1018.6,170.2l7.7,2.2c12.7-4,27.6-8.6,45.3-14-18.7,3.6-36.8,7.7-53,11.9M991.2,177.5c-15.4,4.3-29.9,9-43.6,14l9.5,3.8c14.4-5.7,29-10.7,43.6-14.9l-9.5-2.8ZM913.5,205.2c-14.7,6.6-28.2,13.6-40.9,20.9l13.9,4.5c12.7-7.9,25.8-15.1,39.3-21.7l-12.4-3.7ZM752,569.7c-7.4-30.1-11.6-60.9-11.7-91.6l-23.8,3.1c-.6,24.1,1.3,49.2,5.7,74.9l29.9,13.7ZM758,376.5h-20.4c-6.5,16-11.2,31.9-14.5,47.1-.8,3.7-1.5,7.4-2.2,11.2l22,.4c2.7-20.7,7.8-40.3,15.1-58.8M803.1,301.7l-17.8-3.8c-11.8,13.8-21.6,27.9-29.9,42.2l19.9.9c8.1-13.9,17.4-26.9,27.8-39.2M859.3,249.2l-15.2-4.7c-13.3,9.5-25.3,19.3-36.1,29.5l16.7,4.5c10.8-10.5,22.4-20.3,34.6-29.4M1092.3,370.7c-2.5,14.9-6.3,29.4-11.4,43.4l-.2.7c-.3.8-2.1,5.3-2.1,5.3-.4,1-.8,2-1.2,3.1-.4,1.1-.9,2.1-1.4,3.2l-.8,1.9c-.5,1.1-1,2.2-1.5,3.3-.6,1.2-1.1,2.4-1.7,3.6l-.5,1.1c-.6,1.2-1.1,2.3-1.7,3.5-.6,1.2-1.2,2.4-1.9,3.6l-.3.5c-.7,1.3-1.4,2.6-2.1,3.9-.7,1.3-1.5,2.7-2.3,4-.7,1.3-1.5,2.6-2.2,3.8-.8,1.3-1.6,2.7-2.4,4-.8,1.2-1.6,2.5-2.3,3.7-.8,1.3-1.7,2.6-2.6,3.9-.8,1.2-1.6,2.4-2.5,3.6-.9,1.3-1.8,2.5-2.7,3.8l-.9,1.3-.5.6c-11.6,15.5-25.1,29.6-39.9,41.9l-.9.8c-3.1,2.6-6.4,5.1-9.9,7.7l-1.7,1.2c-7.3,5.3-14.9,10.2-22.7,14.6l-1.1.6c-8.9,5-18,9.4-27.2,13.1l-.4-.6-.8.2c-12.2-18.7-42.2-67.4-59.1-118.6-25.2-76.5-19.2-124.3,16.6-168.4,32.7-40.2,120.8-79.1,194.5-104.2l.7-.6-36.7,10.8s0,0,0,0c-.2-.2-13.8,4.2-13.6,4.4-50.9,16.8-126.2,46.1-155.6,80.5-46.3,54-41.6,114.1-19.3,182,22.4,67.9,66.3,130.3,66.3,130.3,0,0,0,0,0,0l1,1.8c14-4.9,27.5-11.1,40.3-18.3.4-.2.8-.5,1.2-.7,8.3-4.7,16.3-9.9,24-15.5.6-.4,1.2-.9,1.8-1.3,3.7-2.7,7.3-5.5,10.8-8.4.2-.1.3-.2.5-.4,0,0,0-.1.1-.2,15.8-13.1,29.9-28,42.2-44.4.1-.1.2-.2.3-.3.4-.6.8-1.1,1.2-1.7,1-1.3,1.9-2.7,2.9-4,.9-1.2,1.7-2.5,2.6-3.8.9-1.4,1.8-2.7,2.7-4.1.8-1.3,1.7-2.6,2.5-3.9.9-1.4,1.7-2.8,2.6-4.2.8-1.3,1.6-2.7,2.3-4,.8-1.4,1.6-2.8,2.4-4.3.8-1.4,1.5-2.8,2.2-4.2.8-1.4,1.5-2.9,2.3-4.3.7-1.4,1.4-2.9,2.1-4.3.7-1.5,1.4-2.9,2.1-4.4.7-1.5,1.3-3,2-4.4.6-1.5,1.3-2.9,1.9-4.4.6-1.5,1.2-3.1,1.8-4.6.6-1.5,1.2-2.9,1.7-4.4,0-.1.1-.3.2-.4,0,0,0-.1,0-.2,7.4-20.2,12.3-41.7,14.5-63.9,0-.3,0-.7.1-1,.3-3.4.6-6.8.7-10.2,0-.7,0-1.4.1-2.1.2-3.9.3-7.8.3-11.8s0-6.8-.2-10.1c0-1.4-.2-2.8-.2-4.2-.1-1.9-.2-3.8-.3-5.6-.1-1.9-.3-3.7-.5-5.6-.1-1.3-.3-2.6-.4-3.9-.3-2.2-.5-4.5-.9-6.7-.1-.8-.2-1.5-.3-2.3-.4-2.6-.8-5.3-1.3-7.9,0,0,0-.2,0-.2-5.9-32.6-18-63.1-34.9-90.2-49.4,62.4-78.8,139.2-90.1,217.7-1.2,5.6-1.8,14.1-2.5,19.8-.7,6.6-1.6,13.3-2.5,19.9-.7-9.6-1.2-20.5-1.5-30.2-.3-23.6,2.5-47.2,6.8-70.5,1.8-6.9,5.4-23,7.5-29.6,1.7-4.8,4.7-14.6,6.6-19.3,43.6-105.2,99.1-136.1,99.1-136.1-85,34.1-161.8,75.3-187,110-32.2,44.3-38.8,87.3-14.9,159.5,15,45.4,40.7,89.1,54.2,110.5,0,0,109-39.3,145.9-174.3M5.4,537.6h235.1v-49H59.8v-143.7h131.7v-46.3H59.8v-110.7h183.7v-49H5.4v398.6ZM1392.7,354.2l115.6,183.4h-62.3l-106.4-171.1c-12.2,0-31.4-.9-57.7-2.7v173.9h-54.4V139c2,0,16.1-.7,42.3-2,26.2-1.4,45.3-2,57.3-2,95.8,0,143.7,38.1,143.7,114.3s-7.7,47.6-23.1,67.6c-15.4,20-33.7,32.5-55,37.4M1391.3,304.4c14.9-10.5,22.3-29.3,22.3-56.3s-8-38.4-23.9-48.2c-16-9.8-41.2-14.7-75.6-14.7s-16.1.9-32.1,2.7v129.5c13.1,1.8,25.8,2.7,38.1,2.7,32.7,0,56.4-5.3,71.3-15.8M1530.1,289.7h40v247.9h51.7V246.2h-91.7v43.5ZM1598.4,136c-8.9,0-16.4,3.1-22.6,9.2-6.2,6.2-9.2,13.7-9.2,22.6s3.1,16.5,9.4,22.7c6.3,6.3,13.7,9.4,22.5,9.4s16.5-3.1,22.7-9.4c6.3-6.3,9.4-13.8,9.4-22.7s-3.1-16.2-9.4-22.4c-6.3-6.3-13.8-9.4-22.7-9.4M1888.7,126.8h51.7v410.6h-51.7v-21.5c-18,18-44.1,26.9-78.4,26.9s-66-13.1-88.7-39.2c-22.7-26.1-34-60.9-34-104.5s13.1-81,39.2-112,57.2-46.4,93.3-46.4,53,7.1,68.6,21.2V126.8ZM1888.7,313.7c-13.1-19.6-30.9-29.4-53.6-29.4s-50.2,10.3-67.3,31c-17.1,20.7-25.7,47-25.7,78.9,0,70.2,31.9,105.3,95.8,105.3s18-2.6,29.4-7.8c11.4-5.2,18.6-10.7,21.5-16.5v-161.6ZM2259.8,397h-210.1c0,34.1,9.3,60.3,28,78.6,16.5,16,37.7,23.9,63.7,23.9s54.2-8.6,74-25.8l21.8,37.3c-8,8-20.2,14.9-36.7,20.7-20.7,7.6-43.7,11.4-69.1,11.4-36.6,0-67.7-12.4-93.3-37.3-28.5-27.4-42.7-64.2-42.7-110.5s14.6-86.6,43.8-115.6c26.1-25.9,57-38.9,92.8-38.9s74.1,11.7,97.7,35.1c22.9,22.5,34.3,52.3,34.3,89.5s-1.4,21.9-4.1,31.6M2212.5,359.4c0-20.9-6.5-38.3-19.6-52.2-14.3-15.2-33.8-22.9-58.5-22.9s-42.4,7.4-58,22.3c-14.9,14.1-23.3,31.7-25.3,52.8h161.4Z"/>
          </g>
        </g>
      </g>
    </g>
  </g>
</svg>